<?xml version="1.0" encoding="utf-8"?>
<svg viewBox="0 0 500 500" xmlns="http://www.w3.org/2000/svg">
  <g transform="matrix(1.299436092376709, 0, 0, 1.4416539669036865, 98.82247924804688, -326.60321044921875)" style="">
    <g enable-background="new    "/>
    <g enable-background="new    "/>
    <g>
      <path id="Rectangle-16" fill="#526CD0" d="M11.7,372.4h219.5c6.3,0,11.2,4.9,11.2,11.2v131.1c0,6.3-4.9,11.2-11.2,11.2H11.7 c-6.3,0-11.2-4.9-11.2-11.2V383.5C0.6,377.3,5.5,372.4,11.7,372.4z"/>
      <path id="Rectangle-16_1_" fill="#3D53A7" d="M11.7,372.4h219.5c6.3,0,11.2,4.9,11.2,11.2v5.6c0,6.3-4.9,11.2-11.2,11.2H11.7 c-6.3,0-11.2-4.9-11.2-11.2v-5.6C0.6,377.3,5.5,372.4,11.7,372.4z"/>
      <defs>
        <filter id="Adobe_OpacityMaskFilter" filterUnits="userSpaceOnUse" x="55.6" y="311.9" width="133.5" height="133.5">
          <feColorMatrix type="matrix" values="1 0 0 0 0  0 1 0 0 0  0 0 1 0 0  0 0 0 1 0"/>
        </filter>
      </defs>
      <mask maskUnits="userSpaceOnUse" x="55.6" y="311.9" width="133.5" height="133.5" id="mask-2">
        <g filter="url(#Adobe_OpacityMaskFilter)">
          <rect id="path-1" x="47.1" y="311.9" fill="#FFFFFF" width="151.1" height="88.4"/>
        </g>
      </mask>
      <g mask="url(#mask-2)">
        <g transform="translate(2.767742, 0.000000)">
          <circle id="Oval-6" fill="#E4E4E4" cx="119.6" cy="378.7" r="66.7"/>
          <circle id="Oval-6-Copy" fill="#D6D6D6" cx="119.6" cy="378.7" r="57" style="transform-box: fill-box; transform-origin: 50% 50%;"/>
          <path id="Shape" fill="#616161" d="M131.4,412.4c1.2,1.6,0.9,4-0.7,5.3c-0.7,0.5-1.4,0.7-2.1,0.7c-1.2,0-2.1-0.5-2.8-1.4 l-22.6-30.9c-0.9-1.2-0.9-2.6-0.2-4c0.7-1.2,1.9-2.1,3.3-2.1h7.9c4.9,0,9.1-3.3,10.7-7.9h-18.4c-2.1,0-3.5-1.6-3.5-3.7 c0-2.1,1.6-3.7,3.5-3.7h18.4c-1.6-4.7-5.8-7.9-10.7-7.9h-7.9c-2.1,0-3.5-1.6-3.5-3.7c0-2.1,1.6-3.7,3.5-3.7h34.9 c2.1,0,3.5,1.6,3.5,3.7c0,2.1-1.6,3.7-3.5,3.7h-12.6c1.6,2.3,2.8,5.1,3.5,7.9h9.1c2.1,0,3.5,1.6,3.5,3.7c0,2.1-1.6,3.7-3.5,3.7 h-9.1c-1.9,8.8-9.3,15.3-18.1,15.3h-0.5L131.4,412.4z" style="transform-box: fill-box; transform-origin: 50% 50%;"/>
        </g>
      </g>
    </g>
  </g>
</svg>