<svg width="53" height="59" viewBox="0 0 53 59" fill="none" xmlns="http://www.w3.org/2000/svg">
<g filter="url(#filter0_d_34_31)">
<path d="M5.02145 47.1571C5.05559 46.8847 5.10283 46.6144 5.16299 46.3476C7.27981 36.2971 10.4674 26.274 16.4055 18.3433C17.7778 16.5253 19.2977 14.8102 20.3807 12.7589C20.5628 12.4581 20.6748 12.1115 20.7069 11.7504C20.6883 11.4126 20.5953 11.085 20.4361 10.7968C19.2916 8.31334 14.861 1.44604 20.4361 1.28139C21.6002 1.33745 22.7426 1.65234 23.796 2.20755C24.6021 2.56429 25.4944 3.01022 25.8205 3.90207C25.9349 4.26296 25.9429 4.65513 25.8435 5.02148C25.7441 5.38784 25.5424 5.70924 25.2677 5.93889C24.9931 6.16854 24.6598 6.29445 24.3165 6.29829C23.9732 6.30212 23.6378 6.18368 23.3591 5.96021C22.9808 5.553 22.6795 5.06548 22.4729 4.52637C22.1266 3.70069 21.559 3.01515 20.8484 2.56429C20.4938 2.34675 20.0849 2.26517 19.6846 2.33211C19.2843 2.39905 18.9149 2.61079 18.6331 2.93475C18.0178 3.81975 18.3747 5.12323 18.83 6.14544C19.3189 7.22304 19.8677 8.26556 20.473 9.26694C20.9776 10.1039 21.5499 11.0095 21.4576 12.0111C21.3837 12.539 21.2027 13.0411 20.9284 13.4792C19.7541 15.4272 18.4781 17.2964 17.107 19.0774C11.6304 26.9051 8.91666 36.7773 7.96286 46.6495C7.9746 47.4529 7.71043 48.2309 7.22443 48.8242C7.06123 48.9557 6.87476 49.0468 6.67745 49.0915C6.48015 49.1362 6.27656 49.1335 6.08029 49.0835C5.88401 49.0335 5.69956 48.9374 5.53925 48.8016C5.37894 48.6658 5.24647 48.4934 5.15068 48.296C5.01354 47.9371 4.96879 47.5428 5.02145 47.1571ZM17.9439 46.0595C18.2775 45.8718 18.6283 45.7246 18.99 45.6204C22.3622 44.557 25.9497 44.8246 29.4019 45.4283C32.854 46.032 36.2815 46.9582 39.7768 47.2189C41.5859 47.3492 43.5612 47.2189 44.9827 45.9771C45.8218 45.1464 46.4571 44.091 46.8287 42.9105C47.2263 42.0425 47.329 41.0435 47.118 40.0977C46.8319 39.3892 46.3868 38.7749 45.8257 38.314C40.5337 33.1344 35.3154 27.797 31.0572 21.5677C29.4062 19.2503 28.0613 16.6813 27.0635 13.9389C26.8188 13.3232 26.693 12.6571 26.6943 11.9837C26.8237 11.1045 27.1036 10.2614 27.5189 9.50019C28.2074 7.90123 28.5789 6.15568 28.6081 4.3823C28.6081 3.30522 28.6081 1.03441 30.2449 1.54208C30.6001 1.68202 30.9083 1.93975 31.1283 2.28066C31.3483 2.62158 31.4695 3.02937 31.4756 3.44929C31.4675 4.28224 31.2863 5.10177 30.9464 5.84358C30.2062 7.66836 29.3315 9.4215 28.3311 11.085C28.0988 11.4195 27.9331 11.8054 27.845 12.2169C27.8042 12.7585 27.9046 13.3017 28.1342 13.7811C30.128 19.0293 33.4571 23.5092 36.9707 27.6598C39.7458 30.931 42.6662 34.045 45.7211 36.99C46.5888 37.8269 47.5056 38.7119 47.8564 39.9262C48.1266 41.0864 48.013 42.3163 47.5364 43.3908C46.9016 45.0704 45.7523 46.4441 44.2935 47.2669C42.6372 48.0259 40.8258 48.2632 39.0568 47.9529C35.8631 47.6031 32.7556 46.5809 29.568 46.1624C26.3805 45.7439 22.9529 46.0114 20.2884 48.0078C19.8199 48.4216 19.3021 48.7609 18.75 49.0163C18.4746 49.1441 18.1715 49.1791 17.8784 49.1169C17.5853 49.0547 17.315 48.8981 17.1009 48.6664C16.9095 48.3558 16.8208 47.9808 16.85 47.6054C16.8792 47.23 17.0244 46.8775 17.2609 46.6083C17.4642 46.3625 17.7061 46.1603 17.9747 46.0114L17.9439 46.0595Z" fill="url(#paint0_linear_34_31)" shape-rendering="crispEdges"/>
<path d="M17.7515 45.5944L17.7324 45.5741C17.4091 45.7532 17.1209 45.9945 16.8802 46.2841C16.5717 46.638 16.3884 47.0919 16.3515 47.5666C16.3144 48.0439 16.4264 48.525 16.6752 48.9287L16.7007 48.9701L16.7337 49.0058C17.0141 49.3092 17.3749 49.5212 17.7747 49.606C18.1749 49.6909 18.5879 49.6426 18.9599 49.4701C18.9601 49.47 18.9603 49.47 18.9605 49.4699L17.7515 45.5944ZM17.7515 45.5944C18.1006 45.403 18.4672 45.2512 18.8455 45.1417C22.3323 44.0438 26.0143 44.3283 29.488 44.9358C30.6429 45.1378 31.7795 45.3717 32.908 45.604C35.2143 46.0788 37.4868 46.5467 39.8136 46.7202C41.5959 46.8486 43.383 46.7019 44.6421 45.6107C45.4151 44.8417 46.0051 43.8619 46.3518 42.7604L46.3612 42.7307L46.3741 42.7023C46.7199 41.9473 46.8146 41.0758 46.6387 40.2468C46.3819 39.628 45.9915 39.0972 45.5083 38.7004L45.4915 38.6866L45.476 38.6714C40.1831 33.491 34.9349 28.1254 30.6471 21.8539C28.972 19.5018 27.6081 16.8962 26.5961 14.1166C26.3294 13.4428 26.1929 12.7161 26.1943 11.9827L26.1944 11.9466L26.1996 11.9109C26.3362 10.9828 26.6306 10.0905 27.0685 9.2817C27.7246 7.75065 28.0796 6.07845 28.1081 4.37813L28.108 4.35319C28.108 3.82929 28.1078 2.92939 28.3365 2.21541C28.4539 1.84887 28.6537 1.45694 29.0152 1.20827C29.4014 0.942659 29.8759 0.904153 30.393 1.06453L30.4108 1.07005L30.4282 1.07689C30.8869 1.25764 31.2755 1.58662 31.5485 2.00956C31.8211 2.43206 31.9681 2.93187 31.9756 3.44202L31.9757 3.45418L31.9756 3.45418C31.9668 4.35204 31.7724 5.23731 31.4056 6.0416C30.6567 7.88652 29.7717 9.65961 28.7596 11.3426L28.7512 11.3567L28.7418 11.3702C28.5547 11.6396 28.4176 11.952 28.3413 12.2883C28.3135 12.7333 28.3989 13.1762 28.5852 13.5651L28.5942 13.584L28.6016 13.6035C30.5646 18.7707 33.8489 23.1982 37.3524 27.3367C40.1166 30.5952 43.0255 33.6968 46.0681 36.63L46.0682 36.6301L46.1055 36.6661C46.9474 37.478 47.9485 38.4434 48.3368 39.7875L48.3404 39.8001L48.3434 39.8128C48.6368 41.0727 48.5157 42.4084 47.9992 43.5806C47.3251 45.3554 46.1038 46.8199 44.5391 47.7024L44.5208 47.7127L44.5018 47.7215C42.7598 48.5197 40.8516 48.772 38.9864 48.4482C37.3638 48.2693 35.7685 47.9214 34.2011 47.5714C34.1192 47.5531 34.0373 47.5348 33.9555 47.5165C32.4595 47.182 30.9888 46.8532 29.5029 46.6581C26.3788 46.248 23.115 46.5237 20.6038 48.3963L17.7515 45.5944ZM16.0065 18.0421L16.0053 18.0436C10.0022 26.0609 6.79626 36.1681 4.67445 46.2411C4.61128 46.5218 4.56162 46.806 4.52566 47.0924C4.46241 47.5591 4.51647 48.0371 4.68362 48.4745L4.69136 48.4947L4.70083 48.5142C4.82564 48.7715 5.00027 49.0003 5.21605 49.1831L5.21606 49.1831C5.43205 49.3661 5.68426 49.4986 5.95686 49.568C6.22968 49.6375 6.51344 49.6414 6.78795 49.5792C7.06228 49.517 7.31774 49.3911 7.53809 49.2136L7.57842 49.1811L7.61123 49.1411C8.1699 48.459 8.46987 47.5762 8.46312 46.6709C9.41393 36.8625 12.109 27.098 17.5102 19.3733C18.8895 17.581 20.1731 15.7003 21.3545 13.7409C21.6659 13.2422 21.8696 12.6743 21.9528 12.0805L21.9544 12.0688L21.9555 12.057C22.0602 10.9213 21.4485 9.91197 20.9772 9.13435C20.9514 9.0918 20.9261 9.04993 20.9012 9.00878L20.9009 9.00826C20.3061 8.02437 19.7668 6.99979 19.2861 5.94044C19.0686 5.45193 18.887 4.92224 18.8263 4.42776C18.767 3.94375 18.8288 3.54429 19.0287 3.24225C19.2362 3.0125 19.4962 2.87056 19.7671 2.82526C20.044 2.77895 20.33 2.83384 20.5839 2.98861C21.1991 3.37998 21.6998 3.97953 22.009 4.71291C22.2374 5.30639 22.5711 5.84657 22.9927 6.3005L23.0177 6.32737L23.0463 6.3503C23.4113 6.64293 23.8582 6.80344 24.3221 6.79826C24.786 6.79308 25.2294 6.62268 25.5884 6.32247C25.9465 6.02309 26.2015 5.61128 26.3261 5.15244L25.8435 5.02148L26.3261 5.15244C26.4506 4.69373 26.4406 4.20364 26.2971 3.751L26.2938 3.7406L26.2901 3.73035C25.8842 2.6204 24.7943 2.103 24.0138 1.75717C22.9014 1.17363 21.6933 0.841355 20.4602 0.781966L20.4408 0.781032L20.4214 0.781605C18.9267 0.825747 17.9398 1.33148 17.4754 2.26587C17.0394 3.14329 17.1494 4.24918 17.4336 5.30007C17.7235 6.37195 18.2279 7.50337 18.7205 8.50596C18.9577 8.98861 19.1853 9.42888 19.3898 9.82449C19.6244 10.2783 19.8287 10.6733 19.982 11.0061L19.9897 11.0226L19.9985 11.0386C20.1148 11.2491 20.1864 11.4902 20.2053 11.7421C20.1758 12.0165 20.0884 12.2763 19.953 12.5L19.9454 12.5125L19.9386 12.5254C19.1449 14.0288 18.1189 15.3348 17.0632 16.6787C16.7117 17.1261 16.357 17.5777 16.0065 18.0421Z" stroke="url(#paint1_linear_34_31)" shape-rendering="crispEdges"/>
</g>
<defs>
<filter id="filter0_d_34_31" x="0" y="0.28067" width="53" height="57.8662" filterUnits="userSpaceOnUse" color-interpolation-filters="sRGB">
<feFlood flood-opacity="0" result="BackgroundImageFix"/>
<feColorMatrix in="SourceAlpha" type="matrix" values="0 0 0 0 0 0 0 0 0 0 0 0 0 0 0 0 0 0 127 0" result="hardAlpha"/>
<feOffset dy="4"/>
<feGaussianBlur stdDeviation="2"/>
<feComposite in2="hardAlpha" operator="out"/>
<feColorMatrix type="matrix" values="0 0 0 0 0 0 0 0 0 0 0 0 0 0 0 0 0 0 0.25 0"/>
<feBlend mode="normal" in2="BackgroundImageFix" result="effect1_dropShadow_34_31"/>
<feBlend mode="normal" in="SourceGraphic" in2="effect1_dropShadow_34_31" result="shape"/>
</filter>
<linearGradient id="paint0_linear_34_31" x1="5" y1="1.28139" x2="52.7405" y2="44.1029" gradientUnits="userSpaceOnUse">
<stop stop-color="#F31BB2"/>
<stop offset="1" stop-color="#FF902E" stop-opacity="0.86"/>
</linearGradient>
<linearGradient id="paint1_linear_34_31" x1="26.5" y1="1.28139" x2="26.5" y2="49.1469" gradientUnits="userSpaceOnUse">
<stop stop-color="#F31BB2"/>
<stop offset="1" stop-color="#FF902E"/>
</linearGradient>
</defs>
</svg>
